<mxfile host="app.diagrams.net" modified="2023-12-06T17:57:26.085Z" agent="Mozilla/5.0 (Windows NT 10.0; Win64; x64) AppleWebKit/537.36 (KHTML, like Gecko) Chrome/119.0.0.0 Safari/537.36" etag="KD1GkbXl3JdAONJc4sMJ" version="22.1.7" type="github">
  <diagram name="Page-1" id="PWwe1aFcNni5b8Fy281m">
    <mxGraphModel dx="1290" dy="534" grid="1" gridSize="10" guides="1" tooltips="1" connect="1" arrows="1" fold="1" page="1" pageScale="1" pageWidth="850" pageHeight="1100" math="0" shadow="0">
      <root>
        <mxCell id="0" />
        <mxCell id="1" parent="0" />
        <mxCell id="JY8-7arxzFhY87sZUSRJ-1" value="" style="ellipse;whiteSpace=wrap;html=1;aspect=fixed;" vertex="1" parent="1">
          <mxGeometry x="515" y="70" width="120" height="120" as="geometry" />
        </mxCell>
        <mxCell id="JY8-7arxzFhY87sZUSRJ-2" value="Searcher" style="shape=umlActor;verticalLabelPosition=bottom;verticalAlign=top;html=1;outlineConnect=0;" vertex="1" parent="1">
          <mxGeometry x="215" y="100" width="30" height="60" as="geometry" />
        </mxCell>
        <mxCell id="JY8-7arxzFhY87sZUSRJ-4" value="Function That Searches For A Word In An Array Of Excerpts Of Books" style="text;whiteSpace=wrap;" vertex="1" parent="1">
          <mxGeometry x="235" y="40" width="380" height="30" as="geometry" />
        </mxCell>
        <mxCell id="JY8-7arxzFhY87sZUSRJ-6" value="word, array of excerpts of books" style="text;html=1;strokeColor=none;fillColor=none;align=center;verticalAlign=middle;whiteSpace=wrap;rounded=0;" vertex="1" parent="1">
          <mxGeometry x="325" y="90" width="110" height="30" as="geometry" />
        </mxCell>
        <mxCell id="JY8-7arxzFhY87sZUSRJ-8" value="" style="endArrow=classic;startArrow=classic;html=1;rounded=0;entryX=0;entryY=0.5;entryDx=0;entryDy=0;" edge="1" parent="1" source="JY8-7arxzFhY87sZUSRJ-2" target="JY8-7arxzFhY87sZUSRJ-1">
          <mxGeometry width="50" height="50" relative="1" as="geometry">
            <mxPoint x="575" y="260" as="sourcePoint" />
            <mxPoint x="625" y="210" as="targetPoint" />
          </mxGeometry>
        </mxCell>
        <mxCell id="JY8-7arxzFhY87sZUSRJ-10" value="array of search results" style="text;html=1;strokeColor=none;fillColor=none;align=center;verticalAlign=middle;whiteSpace=wrap;rounded=0;" vertex="1" parent="1">
          <mxGeometry x="315" y="140" width="130" height="30" as="geometry" />
        </mxCell>
      </root>
    </mxGraphModel>
  </diagram>
</mxfile>
